<?xml version="1.0" encoding="UTF-8"?>
<svg width="512px" height="512px" viewBox="0 0 512 512" version="1.1" xmlns="http://www.w3.org/2000/svg" xmlns:xlink="http://www.w3.org/1999/xlink">
    <title>kurobi</title>
    <g id="Page-1" stroke="none" stroke-width="1" fill="none" fill-rule="evenodd">
        <g id="kurobi" fill-rule="nonzero">
            <circle id="Oval" fill="#FBC118" transform="translate(256.000000, 256.000000) rotate(-89.646700) translate(-256.000000, -256.000000) " cx="256" cy="256" r="254.436034"></circle>
            <path d="M132.477631,98 C136.962579,100.461257 142.628139,107.623448 146.33304,111.328349 C150.275224,115.270534 155.113194,120.893714 159.403023,125.188921 C165.801087,131.581822 172.568092,138.35399 179.535379,145.315899 C181.448495,147.234178 184.573631,151.387186 186.592159,151.592632 C189.369436,151.87208 194.566021,147.45038 197.575204,145.83758 C208.247392,140.124692 221.706969,136.019227 235.22549,133.810958 C255.384952,130.527704 276.734061,132.704349 293.787103,137.73206 C327.680213,147.729613 350.380313,168.568013 367.512952,196.294534 C373.151406,210.102615 379.366398,224.047516 381.631675,241.524356 C383.903406,258.994743 382.423339,278.551852 382.423339,298.261701 C382.423339,308.032726 382.158734,317.898406 382.158734,327.80281 C382.158734,347.454575 381.89628,366.600793 381.89628,385.585667 L381.896279,388.640357 C381.892418,397.283936 381.823024,405.82382 380.852919,414.081264 C377.563641,413.401465 375.71786,410.249869 373.532179,408.062037 C360.620313,395.154474 348.08707,381.627348 334.316851,368.851011 C332.329087,367.007381 329.883103,362.795213 327.516717,362.575785 C324.786767,362.321936 319.264482,366.917028 317.061591,368.065801 C306.741994,373.467617 294.858431,377.626003 282.030465,380.093499 C263.843708,383.582843 242.950666,383.430104 225.555574,379.312591 C196.990277,372.546877 174.027937,356.324222 157.843144,336.693969 C155.508381,333.862911 153.769302,330.526306 151.566411,327.280053 C142.723009,314.258474 136.651722,301.376726 132.741161,283.095314 C129.120589,266.130474 130.127164,244.501701 130.132327,223.230037 C130.137705,192.579092 131.175903,160.984175 131.175903,129.631704 C131.175903,119.449788 131.428892,108.261082 131.95595,98.7800471 C131.940031,98.3373177 132.145692,98.1105748 132.477631,98 Z M259.782129,197.821929 C228.539869,197.821929 203.213013,223.148785 203.213013,254.391045 C203.213013,285.633305 228.539869,310.960161 259.782129,310.960161 C291.024389,310.960161 316.351245,285.633305 316.351245,254.391045 C316.351245,223.148785 291.024389,197.821929 259.782129,197.821929 Z" id="Combined-Shape" fill="#121212"></path>
        </g>
    </g>
</svg>